<?xml version="1.0" encoding="UTF-8" standalone="no"?><svg xmlns="http://www.w3.org/2000/svg" xmlns:xlink="http://www.w3.org/1999/xlink" contentStyleType="text/css" height="416px" preserveAspectRatio="none" style="width:626px;height:416px;background:#FFFFFF;" version="1.1" viewBox="0 0 626 416" width="626px" zoomAndPan="magnify"><defs/><g><rect fill="#F1F1F1" height="36.2969" rx="12.5" ry="12.5" style="stroke:#181818;stroke-width:1.5;" width="96" x="10" y="188.8906"/><text fill="#000000" font-family="sans-serif" font-size="14" lengthAdjust="spacing" textLength="76" x="20" y="211.8857">Литограф</text><rect fill="#F1F1F1" height="36.2969" rx="12.5" ry="12.5" style="stroke:#181818;stroke-width:1.5;" width="75" x="156" y="104.4453"/><text fill="#000000" font-family="sans-serif" font-size="14" lengthAdjust="spacing" textLength="55" x="166" y="127.4404">Сканер</text><rect fill="#F1F1F1" height="36.2969" rx="12.5" ry="12.5" style="stroke:#181818;stroke-width:1.5;" width="175" x="281" y="20"/><text fill="#000000" font-family="sans-serif" font-size="14" lengthAdjust="spacing" textLength="155" x="291" y="42.9951">Оптическая система</text><path d="M231,122.5938 L241,122.5938 C256,122.5938 256,38.1484 271,38.1484 L281,38.1484 " fill="none" style="stroke:#181818;stroke-width:1.0;"/><rect fill="#F1F1F1" height="36.2969" rx="12.5" ry="12.5" style="stroke:#181818;stroke-width:1.5;" width="80" x="281" y="76.2969"/><text fill="#000000" font-family="sans-serif" font-size="14" lengthAdjust="spacing" textLength="60" x="291" y="99.292">Kubuntu</text><path d="M231,122.5938 L241,122.5938 C256,122.5938 256,94.4453 271,94.4453 L281,94.4453 " fill="none" style="stroke:#181818;stroke-width:1.0;"/><rect fill="#F1F1F1" height="36.2969" rx="12.5" ry="12.5" style="stroke:#181818;stroke-width:1.5;" width="78" x="281" y="132.5938"/><text fill="#000000" font-family="sans-serif" font-size="14" lengthAdjust="spacing" textLength="58" x="291" y="155.5889">Lubuntu</text><path d="M231,122.5938 L241,122.5938 C256,122.5938 256,150.7422 271,150.7422 L281,150.7422 " fill="none" style="stroke:#181818;stroke-width:1.0;"/><rect fill="#F1F1F1" height="36.2969" rx="12.5" ry="12.5" style="stroke:#181818;stroke-width:1.5;" width="91" x="281" y="188.8906"/><text fill="#000000" font-family="sans-serif" font-size="14" lengthAdjust="spacing" textLength="71" x="291" y="211.8857">KDE Neon</text><path d="M231,122.5938 L241,122.5938 C256,122.5938 256,207.0391 271,207.0391 L281,207.0391 " fill="none" style="stroke:#181818;stroke-width:1.0;"/><path d="M106,207.0391 L116,207.0391 C131,207.0391 131,122.5938 146,122.5938 L156,122.5938 " fill="none" style="stroke:#181818;stroke-width:1.0;"/><rect fill="#F1F1F1" height="36.2969" rx="12.5" ry="12.5" style="stroke:#181818;stroke-width:1.5;" width="48" x="156" y="160.7422"/><text fill="#000000" font-family="sans-serif" font-size="14" lengthAdjust="spacing" textLength="28" x="166" y="183.7373">EUV</text><path d="M106,207.0391 L116,207.0391 C131,207.0391 131,178.8906 146,178.8906 L156,178.8906 " fill="none" style="stroke:#181818;stroke-width:1.0;"/><rect fill="#F1F1F1" height="36.2969" rx="12.5" ry="12.5" style="stroke:#181818;stroke-width:1.5;" width="79" x="156" y="217.0391"/><text fill="#000000" font-family="sans-serif" font-size="14" lengthAdjust="spacing" textLength="59" x="166" y="240.0342">SolydXK</text><path d="M106,207.0391 L116,207.0391 C131,207.0391 131,235.1875 146,235.1875 L156,235.1875 " fill="none" style="stroke:#181818;stroke-width:1.0;"/><rect fill="#F1F1F1" height="36.2969" rx="12.5" ry="12.5" style="stroke:#181818;stroke-width:1.5;" width="87" x="156" y="273.3359"/><text fill="#000000" font-family="sans-serif" font-size="14" lengthAdjust="spacing" textLength="67" x="166" y="296.3311">SteamOS</text><path d="M106,207.0391 L116,207.0391 C131,207.0391 131,291.4844 146,291.4844 L156,291.4844 " fill="none" style="stroke:#181818;stroke-width:1.0;"/><rect fill="#F1F1F1" height="36.2969" rx="12.5" ry="12.5" style="stroke:#181818;stroke-width:1.5;" width="247" x="156" y="329.6328"/><text fill="#000000" font-family="sans-serif" font-size="14" lengthAdjust="spacing" textLength="227" x="166" y="352.6279">Raspbian with a very long name</text><rect fill="#F1F1F1" height="36.2969" rx="12.5" ry="12.5" style="stroke:#181818;stroke-width:1.5;" width="159" x="453" y="301.4844"/><text fill="#000000" font-family="sans-serif" font-size="14" lengthAdjust="spacing" text-decoration="line-through" textLength="67" x="463" y="324.4795">Raspmbc</text><text fill="#000000" font-family="sans-serif" font-size="14" lengthAdjust="spacing" textLength="68" x="534" y="324.4795">=&gt; OSMC</text><path d="M403,347.7813 L413,347.7813 C428,347.7813 428,319.6328 443,319.6328 L453,319.6328 " fill="none" style="stroke:#181818;stroke-width:1.0;"/><rect fill="#F1F1F1" height="36.2969" rx="12.5" ry="12.5" style="stroke:#181818;stroke-width:1.5;" width="161" x="453" y="357.7813"/><text fill="#000000" font-family="sans-serif" font-size="14" lengthAdjust="spacing" text-decoration="line-through" textLength="53" x="463" y="380.7764">Raspyfi</text><text fill="#000000" font-family="sans-serif" font-size="14" lengthAdjust="spacing" textLength="84" x="520" y="380.7764">=&gt; Volumio</text><path d="M403,347.7813 L413,347.7813 C428,347.7813 428,375.9297 443,375.9297 L453,375.9297 " fill="none" style="stroke:#181818;stroke-width:1.0;"/><path d="M106,207.0391 L116,207.0391 C131,207.0391 131,347.7813 146,347.7813 L156,347.7813 " fill="none" style="stroke:#181818;stroke-width:1.0;"/><!--MD5=[94e4f63e09c620239d9449f80ca7034a]
@startmindmap
* Литограф
** Сканер
*** Оптическая система
*** Kubuntu
*** Lubuntu
*** KDE Neon
** EUV
** SolydXK
** SteamOS
** Raspbian with a very long name
*** <s>Raspmbc</s> => OSMC
*** <s>Raspyfi</s> => Volumio
@endmindmap

PlantUML version 1.2022.8beta11(Unknown compile time)
(GPL source distribution)
Java Runtime: Java(TM) SE Runtime Environment
JVM: Java HotSpot(TM) 64-Bit Server VM
Default Encoding: UTF-8
Language: en
Country: US
--></g></svg>