<?xml version="1.0" encoding="UTF-8" standalone="no"?><svg xmlns="http://www.w3.org/2000/svg" xmlns:xlink="http://www.w3.org/1999/xlink" contentStyleType="text/css" height="472px" preserveAspectRatio="none" style="width:381px;height:472px;background:#FFFFFF;" version="1.1" viewBox="0 0 381 472" width="381px" zoomAndPan="magnify"><defs/><g><rect fill="#F1F1F1" height="36.2969" rx="12.5" ry="12.5" style="stroke:#181818;stroke-width:1.5;" width="96" x="10" y="217.0391"/><text fill="#000000" font-family="sans-serif" font-size="14" lengthAdjust="spacing" textLength="76" x="20" y="240.0342">Литограф</text><rect fill="#F1F1F1" height="36.2969" rx="12.5" ry="12.5" style="stroke:#181818;stroke-width:1.5;" width="75" x="156" y="20"/><text fill="#000000" font-family="sans-serif" font-size="14" lengthAdjust="spacing" textLength="55" x="166" y="42.9951">Сканер</text><path d="M106,235.1875 L116,235.1875 C131,235.1875 131,38.1484 146,38.1484 L156,38.1484 " fill="none" style="stroke:#181818;stroke-width:1.0;"/><rect fill="#F1F1F1" height="36.2969" rx="12.5" ry="12.5" style="stroke:#181818;stroke-width:1.5;" width="175" x="156" y="76.2969"/><text fill="#000000" font-family="sans-serif" font-size="14" lengthAdjust="spacing" textLength="155" x="166" y="99.292">Оптическая система</text><path d="M106,235.1875 L116,235.1875 C131,235.1875 131,94.4453 146,94.4453 L156,94.4453 " fill="none" style="stroke:#181818;stroke-width:1.0;"/><rect fill="#F1F1F1" height="36.2969" rx="12.5" ry="12.5" style="stroke:#181818;stroke-width:1.5;" width="56" x="156" y="132.5938"/><text fill="#000000" font-family="sans-serif" font-size="14" lengthAdjust="spacing" textLength="36" x="166" y="155.5889">Рама</text><path d="M106,235.1875 L116,235.1875 C131,235.1875 131,150.7422 146,150.7422 L156,150.7422 " fill="none" style="stroke:#181818;stroke-width:1.0;"/><rect fill="#F1F1F1" height="36.2969" rx="12.5" ry="12.5" style="stroke:#181818;stroke-width:1.5;" width="85" x="156" y="188.8906"/><text fill="#000000" font-family="sans-serif" font-size="14" lengthAdjust="spacing" textLength="65" x="166" y="211.8857">Степпер</text><path d="M106,235.1875 L116,235.1875 C131,235.1875 131,207.0391 146,207.0391 L156,207.0391 " fill="none" style="stroke:#181818;stroke-width:1.0;"/><rect fill="#F1F1F1" height="36.2969" rx="12.5" ry="12.5" style="stroke:#181818;stroke-width:1.5;" width="48" x="156" y="245.1875"/><text fill="#000000" font-family="sans-serif" font-size="14" lengthAdjust="spacing" textLength="28" x="166" y="268.1826">EUV</text><path d="M106,235.1875 L116,235.1875 C131,235.1875 131,263.3359 146,263.3359 L156,263.3359 " fill="none" style="stroke:#181818;stroke-width:1.0;"/><rect fill="#F1F1F1" height="36.2969" rx="12.5" ry="12.5" style="stroke:#181818;stroke-width:1.5;" width="193" x="156" y="301.4844"/><text fill="#000000" font-family="sans-serif" font-size="14" lengthAdjust="spacing" textLength="173" x="166" y="324.4795">Система стабилизации</text><path d="M106,235.1875 L116,235.1875 C131,235.1875 131,319.6328 146,319.6328 L156,319.6328 " fill="none" style="stroke:#181818;stroke-width:1.0;"/><rect fill="#F1F1F1" height="36.2969" rx="12.5" ry="12.5" style="stroke:#181818;stroke-width:1.5;" width="146" x="156" y="357.7813"/><text fill="#000000" font-family="sans-serif" font-size="14" lengthAdjust="spacing" textLength="126" x="166" y="380.7764">Вакуумирование</text><path d="M106,235.1875 L116,235.1875 C131,235.1875 131,375.9297 146,375.9297 L156,375.9297 " fill="none" style="stroke:#181818;stroke-width:1.0;"/><rect fill="#F1F1F1" height="36.2969" rx="12.5" ry="12.5" style="stroke:#181818;stroke-width:1.5;" width="213" x="156" y="414.0781"/><text fill="#000000" font-family="sans-serif" font-size="14" lengthAdjust="spacing" textLength="193" x="166" y="437.0732">Система электропитания</text><path d="M106,235.1875 L116,235.1875 C131,235.1875 131,432.2266 146,432.2266 L156,432.2266 " fill="none" style="stroke:#181818;stroke-width:1.0;"/><!--MD5=[88a050a9227d6e48dc7be302bc5b9d84]
@startmindmap
* Литограф
** Сканер
** Оптическая система
** Рама
** Степпер
** EUV
** Система стабилизации
** Вакуумирование
** Система электропитания
@endmindmap

PlantUML version 1.2022.8beta11(Unknown compile time)
(GPL source distribution)
Java Runtime: Java(TM) SE Runtime Environment
JVM: Java HotSpot(TM) 64-Bit Server VM
Default Encoding: UTF-8
Language: en
Country: US
--></g></svg>