<?xml version="1.0" encoding="UTF-8" standalone="no"?><svg xmlns="http://www.w3.org/2000/svg" xmlns:xlink="http://www.w3.org/1999/xlink" contentStyleType="text/css" height="303px" preserveAspectRatio="none" style="width:481px;height:303px;background:#FFFFFF;" version="1.1" viewBox="0 0 481 303" width="481px" zoomAndPan="magnify"><defs/><g><rect fill="#F1F1F1" height="36.2969" rx="12.5" ry="12.5" style="stroke:#181818;stroke-width:1.5;" width="96" x="10" y="132.5938"/><text fill="#000000" font-family="sans-serif" font-size="14" lengthAdjust="spacing" textLength="76" x="20" y="155.5889">Литограф</text><rect fill="#F1F1F1" height="36.2969" rx="12.5" ry="12.5" style="stroke:#181818;stroke-width:1.5;" width="135" x="156" y="20"/><text fill="#000000" font-family="sans-serif" font-size="14" lengthAdjust="spacing" textLength="115" x="166" y="42.9951">Шлюз загрузки</text><path d="M106,150.7422 L116,150.7422 C131,150.7422 131,38.1484 146,38.1484 L156,38.1484 " fill="none" style="stroke:#181818;stroke-width:1.0;"/><rect fill="#F1F1F1" height="36.2969" rx="12.5" ry="12.5" style="stroke:#181818;stroke-width:1.5;" width="175" x="156" y="76.2969"/><text fill="#000000" font-family="sans-serif" font-size="14" lengthAdjust="spacing" textLength="155" x="166" y="99.292">Оптическая система</text><path d="M106,150.7422 L116,150.7422 C131,150.7422 131,94.4453 146,94.4453 L156,94.4453 " fill="none" style="stroke:#181818;stroke-width:1.0;"/><rect fill="#F1F1F1" height="36.2969" rx="12.5" ry="12.5" style="stroke:#181818;stroke-width:1.5;" width="85" x="156" y="132.5938"/><text fill="#000000" font-family="sans-serif" font-size="14" lengthAdjust="spacing" textLength="65" x="166" y="155.5889">Степпер</text><path d="M106,150.7422 L116,150.7422 C131,150.7422 131,150.7422 146,150.7422 L156,150.7422 " fill="none" style="stroke:#181818;stroke-width:1.0;"/><rect fill="#F1F1F1" height="36.2969" rx="12.5" ry="12.5" style="stroke:#181818;stroke-width:1.5;" width="139" x="156" y="188.8906"/><text fill="#000000" font-family="sans-serif" font-size="14" lengthAdjust="spacing" textLength="119" x="166" y="211.8857">Шлюз выгрузки</text><path d="M106,150.7422 L116,150.7422 C131,150.7422 131,207.0391 146,207.0391 L156,207.0391 " fill="none" style="stroke:#181818;stroke-width:1.0;"/><rect fill="#F1F1F1" height="36.2969" rx="12.5" ry="12.5" style="stroke:#181818;stroke-width:1.5;" width="313" x="156" y="245.1875"/><text fill="#000000" font-family="sans-serif" font-size="14" lengthAdjust="spacing" textLength="293" x="166" y="268.1826">Система автоматического управления</text><path d="M106,150.7422 L116,150.7422 C131,150.7422 131,263.3359 146,263.3359 L156,263.3359 " fill="none" style="stroke:#181818;stroke-width:1.0;"/><!--MD5=[7dfecd907470294345d129e29aae2f34]
@startmindmap
* Литограф
** Шлюз загрузки
** Оптическая система
** Степпер
** Шлюз выгрузки
** Система автоматического управления
@endmindmap

PlantUML version 1.2022.8beta11(Unknown compile time)
(GPL source distribution)
Java Runtime: Java(TM) SE Runtime Environment
JVM: Java HotSpot(TM) 64-Bit Server VM
Default Encoding: UTF-8
Language: en
Country: US
--></g></svg>