<?xml version="1.0" encoding="UTF-8" standalone="no"?><svg xmlns="http://www.w3.org/2000/svg" xmlns:xlink="http://www.w3.org/1999/xlink" contentStyleType="text/css" height="303px" preserveAspectRatio="none" style="width:566px;height:303px;background:#FFFFFF;" version="1.1" viewBox="0 0 566 303" width="566px" zoomAndPan="magnify"><defs/><g><rect fill="#F1F1F1" height="36.2969" rx="12.5" ry="12.5" style="stroke:#181818;stroke-width:1.5;" width="188" x="10" y="132.5938"/><text fill="#000000" font-family="sans-serif" font-size="14" lengthAdjust="spacing" textLength="168" x="20" y="155.5889">Столик для подложек</text><rect fill="#F1F1F1" height="36.2969" rx="12.5" ry="12.5" style="stroke:#181818;stroke-width:1.5;" width="257" x="248" y="20"/><text fill="#000000" font-family="sans-serif" font-size="14" lengthAdjust="spacing" textLength="237" x="258" y="42.9951">Магнитотранспортная система</text><path d="M198,150.7422 L208,150.7422 C223,150.7422 223,38.1484 238,38.1484 L248,38.1484 " fill="none" style="stroke:#181818;stroke-width:1.0;"/><rect fill="#F1F1F1" height="36.2969" rx="12.5" ry="12.5" style="stroke:#181818;stroke-width:1.5;" width="75" x="248" y="132.5938"/><text fill="#000000" font-family="sans-serif" font-size="14" lengthAdjust="spacing" textLength="55" x="258" y="155.5889">Столик</text><rect fill="#F1F1F1" height="36.2969" rx="12.5" ry="12.5" style="stroke:#181818;stroke-width:1.5;" width="171" x="373" y="76.2969"/><text fill="#000000" font-family="sans-serif" font-size="14" lengthAdjust="spacing" textLength="151" x="383" y="99.292">Поворотный столик</text><path d="M323,150.7422 L333,150.7422 C348,150.7422 348,94.4453 363,94.4453 L373,94.4453 " fill="none" style="stroke:#181818;stroke-width:1.0;"/><rect fill="#F1F1F1" height="36.2969" rx="12.5" ry="12.5" style="stroke:#181818;stroke-width:1.5;" width="170" x="373" y="132.5938"/><text fill="#000000" font-family="sans-serif" font-size="14" lengthAdjust="spacing" textLength="150" x="383" y="155.5889">Упор для подложки</text><path d="M323,150.7422 L333,150.7422 C348,150.7422 348,150.7422 363,150.7422 L373,150.7422 " fill="none" style="stroke:#181818;stroke-width:1.0;"/><rect fill="#F1F1F1" height="36.2969" rx="12.5" ry="12.5" style="stroke:#181818;stroke-width:1.5;" width="181" x="373" y="188.8906"/><text fill="#000000" font-family="sans-serif" font-size="14" lengthAdjust="spacing" textLength="161" x="383" y="211.8857">Система охлаждения</text><path d="M323,150.7422 L333,150.7422 C348,150.7422 348,207.0391 363,207.0391 L373,207.0391 " fill="none" style="stroke:#181818;stroke-width:1.0;"/><path d="M198,150.7422 L208,150.7422 C223,150.7422 223,150.7422 238,150.7422 L248,150.7422 " fill="none" style="stroke:#181818;stroke-width:1.0;"/><rect fill="#F1F1F1" height="36.2969" rx="12.5" ry="12.5" style="stroke:#181818;stroke-width:1.5;" width="158" x="248" y="245.1875"/><text fill="#000000" font-family="sans-serif" font-size="14" lengthAdjust="spacing" textLength="138" x="258" y="268.1826">Интерферометры</text><path d="M198,150.7422 L208,150.7422 C223,150.7422 223,263.3359 238,263.3359 L248,263.3359 " fill="none" style="stroke:#181818;stroke-width:1.0;"/><!--MD5=[0a0fae442eb907218781288b34551705]
@startmindmap
* Столик для подложек
** Магнитотранспортная система
** Столик
*** Поворотный столик
*** Упор для подложки
*** Система охлаждения
** Интерферометры
@endmindmap

PlantUML version 1.2022.8beta11(Unknown compile time)
(GPL source distribution)
Java Runtime: Java(TM) SE Runtime Environment
JVM: Java HotSpot(TM) 64-Bit Server VM
Default Encoding: UTF-8
Language: en
Country: US
--></g></svg>