<?xml version="1.0" encoding="UTF-8" standalone="no"?><svg xmlns="http://www.w3.org/2000/svg" xmlns:xlink="http://www.w3.org/1999/xlink" contentStyleType="text/css" height="359px" preserveAspectRatio="none" style="width:937px;height:359px;background:#FFFFFF;" version="1.1" viewBox="0 0 937 359" width="937px" zoomAndPan="magnify"><defs/><g><rect fill="#F1F1F1" height="36.2969" rx="12.5" ry="12.5" style="stroke:#181818;stroke-width:1.5;" width="188" x="10" y="160.7422"/><text fill="#000000" font-family="sans-serif" font-size="14" lengthAdjust="spacing" textLength="168" x="20" y="183.7373">Столик для подложек</text><rect fill="#F1F1F1" height="36.2969" rx="12.5" ry="12.5" style="stroke:#181818;stroke-width:1.5;" width="257" x="248" y="76.2969"/><text fill="#000000" font-family="sans-serif" font-size="14" lengthAdjust="spacing" textLength="237" x="258" y="99.292">Магнитотранспортная система</text><rect fill="#F1F1F1" height="36.2969" rx="12.5" ry="12.5" style="stroke:#181818;stroke-width:1.5;" width="339" x="555" y="20"/><text fill="#000000" font-family="sans-serif" font-size="14" lengthAdjust="spacing" textLength="319" x="565" y="42.9951">Базовая основа для магнитной левитации</text><path d="M505,94.4453 L515,94.4453 C530,94.4453 530,38.1484 545,38.1484 L555,38.1484 " fill="none" style="stroke:#181818;stroke-width:1.0;"/><rect fill="#F1F1F1" height="36.2969" rx="12.5" ry="12.5" style="stroke:#181818;stroke-width:1.5;" width="370" x="555" y="76.2969"/><text fill="#000000" font-family="sans-serif" font-size="14" lengthAdjust="spacing" textLength="350" x="565" y="99.292">Система передвижения столика по осям X и Y</text><path d="M505,94.4453 L515,94.4453 C530,94.4453 530,94.4453 545,94.4453 L555,94.4453 " fill="none" style="stroke:#181818;stroke-width:1.0;"/><rect fill="#F1F1F1" height="36.2969" rx="12.5" ry="12.5" style="stroke:#181818;stroke-width:1.5;" width="181" x="555" y="132.5938"/><text fill="#000000" font-family="sans-serif" font-size="14" lengthAdjust="spacing" textLength="161" x="565" y="155.5889">Система охлаждения</text><path d="M505,94.4453 L515,94.4453 C530,94.4453 530,150.7422 545,150.7422 L555,150.7422 " fill="none" style="stroke:#181818;stroke-width:1.0;"/><path d="M198,178.8906 L208,178.8906 C223,178.8906 223,94.4453 238,94.4453 L248,94.4453 " fill="none" style="stroke:#181818;stroke-width:1.0;"/><rect fill="#F1F1F1" height="36.2969" rx="12.5" ry="12.5" style="stroke:#181818;stroke-width:1.5;" width="75" x="248" y="217.0391"/><text fill="#000000" font-family="sans-serif" font-size="14" lengthAdjust="spacing" textLength="55" x="258" y="240.0342">Столик</text><rect fill="#F1F1F1" height="36.2969" rx="12.5" ry="12.5" style="stroke:#181818;stroke-width:1.5;" width="171" x="373" y="188.8906"/><text fill="#000000" font-family="sans-serif" font-size="14" lengthAdjust="spacing" textLength="151" x="383" y="211.8857">Поворотный столик</text><path d="M323,235.1875 L333,235.1875 C348,235.1875 348,207.0391 363,207.0391 L373,207.0391 " fill="none" style="stroke:#181818;stroke-width:1.0;"/><rect fill="#F1F1F1" height="36.2969" rx="12.5" ry="12.5" style="stroke:#181818;stroke-width:1.5;" width="170" x="373" y="245.1875"/><text fill="#000000" font-family="sans-serif" font-size="14" lengthAdjust="spacing" textLength="150" x="383" y="268.1826">Упор для подложки</text><path d="M323,235.1875 L333,235.1875 C348,235.1875 348,263.3359 363,263.3359 L373,263.3359 " fill="none" style="stroke:#181818;stroke-width:1.0;"/><path d="M198,178.8906 L208,178.8906 C223,178.8906 223,235.1875 238,235.1875 L248,235.1875 " fill="none" style="stroke:#181818;stroke-width:1.0;"/><rect fill="#F1F1F1" height="36.2969" rx="12.5" ry="12.5" style="stroke:#181818;stroke-width:1.5;" width="158" x="248" y="301.4844"/><text fill="#000000" font-family="sans-serif" font-size="14" lengthAdjust="spacing" textLength="138" x="258" y="324.4795">Интерферометры</text><path d="M198,178.8906 L208,178.8906 C223,178.8906 223,319.6328 238,319.6328 L248,319.6328 " fill="none" style="stroke:#181818;stroke-width:1.0;"/><!--MD5=[3c0e1c20303d20b3255c68bf97c4bf26]
@startmindmap
* Столик для подложек
** Магнитотранспортная система
*** Базовая основа для магнитной левитации
*** Система передвижения столика по осям X и Y
*** Система охлаждения
** Столик
*** Поворотный столик
*** Упор для подложки
** Интерферометры
@endmindmap

PlantUML version 1.2022.8beta11(Unknown compile time)
(GPL source distribution)
Java Runtime: Java(TM) SE Runtime Environment
JVM: Java HotSpot(TM) 64-Bit Server VM
Default Encoding: UTF-8
Language: en
Country: US
--></g></svg>